name rise30.2954peak35.7071fall66.7804.mot
datacolumns 19
datarows 11
range 17.27327600000000 17.28993700000000
endheader
time	ground_force1_vx	ground_force1_vy	ground_force1_vz	ground_force1_px	ground_force1_py	ground_force1_pz	ground_force2_vx	ground_force2_vy	ground_force2_vz	ground_force2_px	ground_force2_py	ground_force2_pz	ground_torque1_x	ground_torque1_y	ground_torque1_z	ground_torque2_x	ground_torque2_y	ground_torque2_z	
17.27327600000000	-3.87937500000000	41.64197500000000	-11.62899500000000	0.25494300000000	0.00000000000000	0.09897700000000	-36.51260200000000	787.95490700000005	-54.25510100000000	0.07166400000000	0.00000000000000	-0.08262600000000	0.00000000000000	-6.60130200000000	0.00000000000000	0.00000000000000	-12.51111100000000	0.00000000000000	
17.27494100000000	-4.15767600000000	48.84789400000000	-13.06868400000000	0.25942000000000	0.00000000000000	0.10022800000000	-37.19982800000000	785.76200900000003	-54.03583900000000	0.07093400000000	0.00000000000000	-0.08251200000000	0.00000000000000	-7.50153900000000	0.00000000000000	0.00000000000000	-12.50665400000000	0.00000000000000	
17.27660400000000	-4.33384400000000	56.15366500000000	-14.37437000000000	0.26346500000000	0.00000000000000	0.10136700000000	-37.92242000000000	783.46488999999997	-53.80114700000000	0.07020200000000	0.00000000000000	-0.08239500000000	0.00000000000000	-8.34083600000000	0.00000000000000	0.00000000000000	-12.50890700000000	0.00000000000000	
17.27826800000000	-4.39602400000000	63.46534500000000	-15.51544400000000	0.26715000000000	0.00000000000000	0.10241100000000	-38.67972400000000	781.05976199999998	-53.55056400000000	0.06946600000000	0.00000000000000	-0.08227500000000	0.00000000000000	-9.10032000000000	0.00000000000000	0.00000000000000	-12.51780800000000	0.00000000000000	
17.27993800000000	-4.33733700000000	70.71140699999999	-16.47173800000000	0.27053100000000	0.00000000000000	0.10337400000000	-39.47092700000000	778.54272600000002	-53.28362600000000	0.06872800000000	0.00000000000000	-0.08215200000000	0.00000000000000	-9.76698200000000	0.00000000000000	0.00000000000000	-12.53326300000000	0.00000000000000	
17.28160800000000	-4.15575000000000	77.84498300000000	-17.23365400000000	0.27365200000000	0.00000000000000	0.10426800000000	-40.29506300000000	775.90978500000006	-52.99986600000000	0.06798800000000	0.00000000000000	-0.08202600000000	0.00000000000000	-10.33387300000000	0.00000000000000	0.00000000000000	-12.55514900000000	0.00000000000000	
17.28327300000000	-3.85358300000000	84.84370000000000	-17.80139200000000	0.27655100000000	0.00000000000000	0.10510200000000	-41.15100300000000	773.15685499999995	-52.69881700000000	0.06724700000000	0.00000000000000	-0.08189800000000	0.00000000000000	-10.79977700000000	0.00000000000000	0.00000000000000	-12.58331300000000	0.00000000000000	
17.28494100000000	-3.43674200000000	91.70752800000000	-18.18352400000000	0.27925700000000	0.00000000000000	0.10588200000000	-42.03746600000000	770.27978299999995	-52.38001700000000	0.06650600000000	0.00000000000000	-0.08176600000000	0.00000000000000	-11.16846600000000	0.00000000000000	0.00000000000000	-12.61757100000000	0.00000000000000	
17.28660300000000	-2.91379800000000	98.45516200000000	-18.39511200000000	0.28179400000000	0.00000000000000	0.10661600000000	-42.95301100000000	767.27435500000001	-52.04300700000000	0.06576500000000	0.00000000000000	-0.08163200000000	0.00000000000000	-11.44767300000000	0.00000000000000	0.00000000000000	-12.65771200000000	0.00000000000000	
17.28826700000000	-2.29500800000000	105.11949100000000	-18.45563600000000	0.28418200000000	0.00000000000000	0.10730900000000	-43.89604600000000	764.13631699999996	-51.68734200000000	0.06502500000000	0.00000000000000	-0.08149400000000	0.00000000000000	-11.64790900000000	0.00000000000000	0.00000000000000	-12.70349500000000	0.00000000000000	
17.28993700000000	-1.59137900000000	111.74269000000000	-18.38690600000000	0.28643800000000	0.00000000000000	0.10796600000000	-44.86482700000000	760.86139000000003	-51.31258800000000	0.06428700000000	0.00000000000000	-0.08135300000000	0.00000000000000	-11.78126100000000	0.00000000000000	0.00000000000000	-12.75464800000000	0.00000000000000	
